<svg width="21" height="19" viewBox="0 0 21 19" fill="none" xmlns="http://www.w3.org/2000/svg">
<path d="M1.3125 17.6429C1.3125 18.3935 1.89902 19 2.625 19H18.375C19.101 19 19.6875 18.3935 19.6875 17.6429V5.42857H1.3125V17.6429ZM7.875 8.65179C7.875 8.37187 8.09648 8.14286 8.36719 8.14286H12.6328C12.9035 8.14286 13.125 8.37187 13.125 8.65179V8.99107C13.125 9.27098 12.9035 9.5 12.6328 9.5H8.36719C8.09648 9.5 7.875 9.27098 7.875 8.99107V8.65179ZM19.6875 0H1.3125C0.586523 0 0 0.606473 0 1.35714V3.39286C0 3.76607 0.295312 4.07143 0.65625 4.07143H20.3438C20.7047 4.07143 21 3.76607 21 3.39286V1.35714C21 0.606473 20.4135 0 19.6875 0Z" fill="#36454F"/>
</svg>
