<svg width="32" height="32" viewBox="0 0 32 32" fill="none" xmlns="http://www.w3.org/2000/svg">
<path d="M30.5565 21.131L27.4155 18.2352V11.0996C27.4573 8.44992 26.452 5.87582 24.5853 3.85262C22.7186 1.82943 20.1165 0.493782 17.2595 0.0923096C15.6015 -0.107891 13.9159 0.0184179 12.3152 0.462808C10.7146 0.907198 9.23576 1.65945 7.97735 2.66937C6.71894 3.67929 5.70992 4.92366 5.01761 6.31945C4.3253 7.71523 3.96561 9.23033 3.96256 10.7637V18.2352L0.821543 21.131C0.427007 21.4988 0.159458 21.965 0.0523433 22.4714C-0.0547711 22.9778 0.00330159 23.502 0.219301 23.9783C0.435301 24.4546 0.799644 24.862 1.26678 25.1495C1.73392 25.437 2.28313 25.5919 2.84575 25.5948H8.70899V26.1387C8.7905 27.763 9.57094 29.2913 10.8793 30.3889C12.1877 31.4865 13.9172 32.0639 15.689 31.9944C17.4608 32.0639 19.1904 31.4865 20.4988 30.3889C21.8071 29.2913 22.5876 27.763 22.6691 26.1387V25.5948H28.5323C29.0949 25.5919 29.6441 25.437 30.1113 25.1495C30.5784 24.862 30.9428 24.4546 31.1588 23.9783C31.3748 23.502 31.4328 22.9778 31.3257 22.4714C31.2186 21.965 30.951 21.4988 30.5565 21.131ZM19.179 26.1387C19.0823 26.9083 18.6654 27.6139 18.0153 28.1087C17.3651 28.6034 16.5318 28.8491 15.689 28.7946C14.8462 28.8491 14.0129 28.6034 13.3628 28.1087C12.7127 27.6139 12.2958 26.9083 12.199 26.1387V25.5948H19.179V26.1387Z" fill="#275563"/>
</svg>
