<svg width="30" height="30" viewBox="0 0 30 30" fill="none" xmlns="http://www.w3.org/2000/svg">
<g filter="url(#filter0_i_1765_941)">
<path d="M15 0C6.71394 0 0 6.71394 0 15C0 23.2861 6.71394 30 15 30C23.2861 30 30 23.2861 30 15C30 6.71394 23.2861 0 15 0ZM18.8005 20.4303L15 16.6298L11.1995 20.4303C10.7524 20.8774 10.0168 20.8774 9.56971 20.4303C9.34615 20.2067 9.23077 19.9111 9.23077 19.6154C9.23077 19.3197 9.34615 19.024 9.56971 18.8005L13.3702 15L9.56971 11.1995C9.34615 10.976 9.23077 10.6803 9.23077 10.3846C9.23077 10.0889 9.34615 9.79327 9.56971 9.56971C10.0168 9.1226 10.7524 9.1226 11.1995 9.56971L15 13.3702L18.8005 9.56971C19.2476 9.1226 19.9832 9.1226 20.4303 9.56971C20.8774 10.0168 20.8774 10.7524 20.4303 11.1995L16.6298 15L20.4303 18.8005C20.8774 19.2476 20.8774 19.9832 20.4303 20.4303C19.9832 20.8846 19.2476 20.8846 18.8005 20.4303Z" fill="#D62035"/>
</g>
<defs>
<filter id="filter0_i_1765_941" x="0" y="0" width="30" height="34" filterUnits="userSpaceOnUse" color-interpolation-filters="sRGB">
<feFlood flood-opacity="0" result="BackgroundImageFix"/>
<feBlend mode="normal" in="SourceGraphic" in2="BackgroundImageFix" result="shape"/>
<feColorMatrix in="SourceAlpha" type="matrix" values="0 0 0 0 0 0 0 0 0 0 0 0 0 0 0 0 0 0 127 0" result="hardAlpha"/>
<feOffset dy="4"/>
<feGaussianBlur stdDeviation="2"/>
<feComposite in2="hardAlpha" operator="arithmetic" k2="-1" k3="1"/>
<feColorMatrix type="matrix" values="0 0 0 0 0 0 0 0 0 0 0 0 0 0 0 0 0 0 0.25 0"/>
<feBlend mode="normal" in2="shape" result="effect1_innerShadow_1765_941"/>
</filter>
</defs>
</svg>
