<svg width="20" height="19" viewBox="0 0 20 19" fill="none" xmlns="http://www.w3.org/2000/svg">
<path d="M13.9792 3.08439L17.1111 6.43231C17.2431 6.57335 17.2431 6.80348 17.1111 6.94452L9.52778 15.0508L6.30556 15.4331C5.875 15.4851 5.51042 15.0953 5.55903 14.6351L5.91667 11.1907L13.5 3.08439C13.6319 2.94335 13.8472 2.94335 13.9792 3.08439ZM19.6042 2.23442L17.9097 0.423129C17.3819 -0.141043 16.5243 -0.141043 15.9931 0.423129L14.7639 1.73706C14.6319 1.8781 14.6319 2.10822 14.7639 2.24927L17.8958 5.59719C18.0278 5.73823 18.2431 5.73823 18.375 5.59719L19.6042 4.28326C20.1319 3.71537 20.1319 2.79859 19.6042 2.23442ZM13.3333 12.8461V16.6245H2.22222V4.74722H10.2014C10.3125 4.74722 10.4167 4.69896 10.4965 4.61731L11.8854 3.13264C12.1493 2.85056 11.9618 2.37175 11.5903 2.37175H1.66667C0.746528 2.37175 0 3.16976 0 4.15335V17.2184C0 18.202 0.746528 19 1.66667 19H13.8889C14.809 19 15.5556 18.202 15.5556 17.2184V11.3614C15.5556 10.9643 15.1076 10.7675 14.8438 11.0459L13.4549 12.5306C13.3785 12.6159 13.3333 12.7273 13.3333 12.8461Z" fill="#36454F"/>
</svg>
