<svg width="20" height="15" viewBox="0 0 20 15" fill="none" xmlns="http://www.w3.org/2000/svg">
<path d="M11.4965 13.9953L10.5055 14.7578C10.0859 15.0807 9.40743 15.0807 8.9923 14.7578L0.314697 8.08393C-0.104899 7.76105 -0.104899 7.23895 0.314697 6.91951L8.9923 0.242157C9.4119 -0.080719 10.0904 -0.080719 10.5055 0.242157L11.4965 1.00469C11.9205 1.33101 11.9116 1.86341 11.4786 2.18285L6.09977 6.12606H18.9287C19.5224 6.12606 20 6.49359 20 6.95042V8.04958C20 8.50641 19.5224 8.87394 18.9287 8.87394H6.09977L11.4786 12.8172C11.9161 13.1366 11.925 13.669 11.4965 13.9953Z" fill="white"/>
</svg>
