<svg width="33" height="29" viewBox="0 0 33 29" fill="none" xmlns="http://www.w3.org/2000/svg">
<path d="M16.8787 16.0401L5.86382 28.3613C5.1025 29.2129 3.87142 29.2129 3.1182 28.3613L1.28779 26.3138C0.526466 25.4622 0.526466 24.0851 1.28779 23.2426L9.09539 14.5091L1.28779 5.77554C0.526466 4.92393 0.526466 3.54686 1.28779 2.70431L3.1101 0.638707C3.87142 -0.212902 5.1025 -0.212902 5.85572 0.638707L16.8706 12.9599C17.64 13.8115 17.64 15.1885 16.8787 16.0401ZM32.4291 12.9599L21.4142 0.638707C20.6529 -0.212902 19.4218 -0.212902 18.6686 0.638707L16.8382 2.68619C16.0769 3.5378 16.0769 4.91487 16.8382 5.75742L24.6458 14.4909L16.8382 23.2245C16.0769 24.0761 16.0769 25.4531 16.8382 26.2957L18.6686 28.3432C19.4299 29.1948 20.661 29.1948 21.4142 28.3432L32.4291 16.022C33.1904 15.1885 33.1904 13.8115 32.4291 12.9599Z" fill="black"/>
</svg>
