<svg width="24" height="21" viewBox="0 0 24 21" fill="none" xmlns="http://www.w3.org/2000/svg">
<path d="M21.6943 8.38497H14.2934V1.9564C14.2934 1.16756 13.5569 0.527832 12.6488 0.527832H11.0041C10.096 0.527832 9.3595 1.16756 9.3595 1.9564V8.38497H1.95861C1.05046 8.38497 0.313965 9.02471 0.313965 9.81355V11.2421C0.313965 12.031 1.05046 12.6707 1.95861 12.6707H9.3595V19.0993C9.3595 19.8881 10.096 20.5278 11.0041 20.5278H12.6488C13.5569 20.5278 14.2934 19.8881 14.2934 19.0993V12.6707H21.6943C22.6025 12.6707 23.339 12.031 23.339 11.2421V9.81355C23.339 9.02471 22.6025 8.38497 21.6943 8.38497Z" fill="white"/>
</svg>
