<svg width="33" height="29" viewBox="0 0 33 29" fill="none" xmlns="http://www.w3.org/2000/svg">
<path d="M16.1213 16.0401L27.1362 28.3613C27.8975 29.2129 29.1286 29.2129 29.8818 28.3613L31.7122 26.3138C32.4735 25.4622 32.4735 24.0851 31.7122 23.2426L23.9046 14.5091L31.7122 5.77554C32.4735 4.92393 32.4735 3.54686 31.7122 2.70431L29.8899 0.638707C29.1286 -0.212902 27.8975 -0.212902 27.1443 0.638707L16.1294 12.9599C15.36 13.8115 15.36 15.1885 16.1213 16.0401ZM0.57091 12.9599L11.5858 0.638707C12.3471 -0.212902 13.5782 -0.212902 14.3314 0.638707L16.1618 2.68619C16.9231 3.5378 16.9231 4.91487 16.1618 5.75742L8.35421 14.4909L16.1618 23.2245C16.9231 24.0761 16.9231 25.4531 16.1618 26.2957L14.3314 28.3432C13.5701 29.1948 12.339 29.1948 11.5858 28.3432L0.57091 16.022C-0.190411 15.1885 -0.190411 13.8115 0.57091 12.9599Z" fill="black"/>
</svg>
