<svg width="23" height="23" viewBox="0 0 23 23" fill="none" xmlns="http://www.w3.org/2000/svg">
<path d="M9.86426 2.2666L10.9482 1.18262C11.4072 0.723633 12.1494 0.723633 12.6035 1.18262L22.0957 10.6699C22.5547 11.1289 22.5547 11.8711 22.0957 12.3252L12.6035 21.8174C12.1445 22.2764 11.4023 22.2764 10.9482 21.8174L9.86426 20.7334C9.40039 20.2695 9.41016 19.5127 9.88379 19.0586L15.7676 13.4531H1.73438C1.08496 13.4531 0.5625 12.9307 0.5625 12.2813V10.7188C0.5625 10.0693 1.08496 9.54688 1.73438 9.54688H15.7676L9.88379 3.94141C9.40527 3.4873 9.39551 2.73047 9.86426 2.2666Z" fill="white"/>
</svg>
